<svg width="172" height="20" viewBox="0 0 172 20" xmlns="http://www.w3.org/2000/svg" fill="none"><style>.a{fill:white;}.b{stroke:#F3B233;}</style><path d="M9.8 12.6L14.2 18.9H10.6L6.6 13H2.9V18.9H0V1.6H6.3C8.8 1.6 10.6 2 11.7 2.9 12.9 3.8 13.4 5.2 13.4 7.2 13.4 10.1 12.2 11.8 9.8 12.6ZM6.4 10.4C7.9 10.4 9 10.2 9.6 9.7 10.2 9.2 10.5 8.3 10.5 7.2 10.5 6 10.2 5.3 9.6 4.9 9 4.4 8 4.2 6.4 4.2H2.9V10.4H6.4Z" class="a"/><path d="M56.1 18.9H53.2V1.6H57.7L62.7 12.4 67.8 1.6H72.2V18.9H69.4V5.4L63.5 17.3H62L56.1 5.4V18.9Z" class="a"/><path d="M89.3 14.1L91.2 16C89.4 18.1 87.3 19.1 84.7 19.1 82.1 19.1 80 18.2 78.3 16.6 76.6 14.9 75.8 12.7 75.8 10.2 75.8 7.6 76.7 5.4 78.4 3.7 80.1 2 82.3 1.2 84.9 1.2 87.5 1.2 89.6 2.1 91.4 4.1L89.6 6.1C88.8 5.3 88 4.8 87.3 4.5 86.6 4.2 85.8 4 84.8 4 83.1 4 81.7 4.6 80.5 5.7 79.3 6.8 78.8 8.3 78.8 10 78.8 11.7 79.3 13.2 80.5 14.4 81.6 15.6 83 16.2 84.6 16.2 85.5 16.2 86.4 16 87.1 15.7 87.8 15.4 88.5 14.8 89.3 14.1Z" class="a"/><path d="M97 14.9L95.3 18.9H92.3L99.7 1.6H102.8L110.2 18.9H107.1L105.5 14.9H97ZM104.3 12.2L101.3 5.1 98.2 12.2H104.3Z" class="a"/><path d="M114.8 5.9C114.8 6.7 115 7.2 115.6 7.5 116.1 7.9 117.2 8.3 118.9 8.8 120.8 9.2 122.1 9.8 122.9 10.6 123.8 11.4 124.2 12.5 124.2 14 124.2 15.5 123.6 16.7 122.5 17.7 121.4 18.6 119.9 19.1 118.2 19.1 115.6 19.1 113.2 18.1 111.1 16.2L112.9 14.1C114.7 15.6 116.4 16.4 118.2 16.4 119.1 16.4 119.8 16.2 120.4 15.8 120.9 15.3 121.2 14.8 121.2 14.1 121.2 13.5 121 12.9 120.5 12.6 120 12.2 119.1 11.9 117.8 11.5 115.7 11 114.1 10.4 113.3 9.7 112.3 8.9 111.8 7.7 111.8 6.1 111.8 4.6 112.4 3.4 113.5 2.5 114.6 1.6 116 1.2 117.7 1.2 120 1.2 122 1.9 123.7 3.2L122.1 5.4C121.6 5 121 4.6 120.1 4.3 119.3 4 118.4 3.8 117.6 3.8 116.8 3.8 116.1 4 115.5 4.4 115 4.8 114.8 5.3 114.8 5.9Z" class="a"/><path d="M127.7 1.6H130.6V18.9H127.7V1.6Z" class="a"/><path d="M147.8 1.6H150.6V18.9H147.6L138.1 6.2V18.9H135.2V1.6H138.1L147.8 14.5V1.6Z" class="a"/><path d="M163.1 3.8C161.4 3.8 160 4.4 158.9 5.6 157.7 6.9 157.2 8.4 157.2 10.1 157.2 11.8 157.7 13.3 158.9 14.6 160 15.8 161.4 16.4 163.1 16.4 164.8 16.4 166.2 15.8 167.4 14.6 168.5 13.3 169.1 11.8 169.1 10.1 169.1 8.4 168.5 6.9 167.4 5.6 166.2 4.4 164.8 3.8 163.1 3.8ZM163.1 19C160.6 19 158.5 18.2 156.8 16.5 155.1 14.8 154.2 12.6 154.2 10.1 154.2 7.6 155.1 5.4 156.8 3.7 158.5 2 160.6 1.2 163.1 1.2 165.6 1.2 167.8 2 169.5 3.7 171.2 5.4 172 7.6 172 10.1 172 12.6 171.1 14.8 169.4 16.5 167.7 18.2 165.6 19 163.1 19Z" class="a"/><path d="M37 10.2C37 15.1 33 19.2 28 19.2 23 19.2 19 15.1 19 10.2 19 5.2 23 1.2 28 1.2M37 10.2C37 5.2 33 1.2 28 1.2M37 10.2H33.8M28 1.2V5M28 15.6C31 15.6 33.4 13.1 33.4 10.2 33.4 7.2 31 4.8 28 4.8 25 4.8 22.6 7.2 22.6 10.2 22.6 13.1 25 15.6 28 15.6ZM28 15.6V18.8M22.9 10.2H21.1 19.3M31.9 6.5L34.4 4M22 16.4L24.3 14.1M22 4L24.3 6.2M31.6 13.8L34.3 16.5" class="b"/><path d="M49 10.2C49 14.6 45.4 18.2 41.1 18.2 39.6 18.2 38.2 17.7 37 17M49 10.2C49 5.7 45.4 2.2 41.1 2.2M49 10.2H46.2M41.1 2.2V5.4M41.1 2.2C39.7 2.2 38.4 2.5 37.3 3.1M41.1 15C43.7 15 45.8 12.8 45.8 10.2 45.8 7.5 43.7 5.4 41.1 5.4M41.1 15V17.9M41.1 15C40.4 15 39.8 14.8 39.2 14.6M41.1 5.4C40.4 5.4 39.8 5.5 39.2 5.7M44.5 6.9L46.7 4.6M44.4 13.5L46.6 15.8" class="b"/></svg>