<svg width="26" height="25" viewBox="0 0 26 25" xmlns="http://www.w3.org/2000/svg" fill="none"><style>.a{clip-rule:evenodd;fill-rule:evenodd;fill:#F3B233;}</style><path d="M12.7 0.1C11.6-0.2 10.5 0.4 10.3 1.5L9.3 5H16C17.1 5 18 5.9 18 7V20.5L19.8 21C20.9 21.2 22 20.6 22.3 19.5L25.9 5.7C26.2 4.6 25.6 3.5 24.5 3.3L12.7 0.1Z" class="a"/><path d="M2 6.7C0.9 6.7 0 7.6 0 8.7V23C0 24.1 0.9 25 2 25H14.2C15.3 25 16.2 24.1 16.2 23V8.7C16.2 7.6 15.3 6.7 14.2 6.7H2ZM4.5 15.2C4.2 15.6 4.2 16.1 4.5 16.4L7.3 20.3C7.7 20.8 8.5 20.8 8.9 20.3L11.7 16.4C12 16.1 12 15.6 11.7 15.2L8.9 11.4C8.5 10.9 7.7 10.9 7.3 11.4L4.5 15.2Z" class="a"/></svg>