<svg width="22" height="22" viewBox="0 0 22 22" xmlns="http://www.w3.org/2000/svg" fill="none"><style>.a{stroke-width:2;stroke:#0E152F;}</style><path d="M11 22C17.1 22 22 17.1 22 11 22 4.9 17.1 0 11 0 4.9 0 0 4.9 0 11 0 17.1 4.9 22 11 22Z" fill="#F3B233"/><line x1="11" y1="14" x2="11" y2="22" class="a"/><line x1="22" y1="11" x2="14" y2="11" class="a"/><line x1="8" y1="11" y2="11" class="a"/><path d="M11 14C12.7 14 14 12.7 14 11 14 9.3 12.7 8 11 8 9.3 8 8 9.3 8 11 8 12.7 9.3 14 11 14Z" class="a"/><line x1="11" x2="11" y2="8" class="a"/><line x1="8.9" y1="13.1" x2="3.2" y2="18.8" class="a"/><line x1="18.8" y1="18.8" x2="13.1" y2="13.1" class="a"/><line x1="8.9" y1="8.9" x2="3.2" y2="3.2" class="a"/><line x1="18.8" y1="3.2" x2="13.1" y2="8.9" class="a"/></svg>