<svg width="46" height="23" viewBox="0 0 46 23" xmlns="http://www.w3.org/2000/svg" fill="none"><style>.a{fill:#F3B233;}.b{fill:#0E152F;}</style><path d="M0 2C0 0.9 0.9 0 2 0H12C13.1 0 14 0.9 14 2V21C14 22.1 13.1 23 12 23H2C0.9 23 0 22.1 0 21V2Z" class="a"/><path d="M16 2C16 0.9 16.9 0 18 0H28C29.1 0 30 0.9 30 2V21C30 22.1 29.1 23 28 23H18C16.9 23 16 22.1 16 21V2Z" class="a"/><path d="M32 2C32 0.9 32.9 0 34 0H44C45.1 0 46 0.9 46 2V21C46 22.1 45.1 23 44 23H34C32.9 23 32 22.1 32 21V2Z" class="a"/><path d="M4 8V10.8H5.5V9.5H8L5.3 16H7.2L10 9.2V8H4Z" class="b"/><path d="M20 8V10.8H21.5V9.5H24L21.3 16H23.2L26 9.2V8H20Z" class="b"/><path d="M36 8V10.8H37.5V9.5H40L37.3 16H39.2L42 9.2V8H36Z" class="b"/></svg>